<svg width="32" height="32" viewBox="0 0 32 32" fill="none" xmlns="http://www.w3.org/2000/svg">
<g id="solar:settings-linear">
<g id="Group">
<path id="Vector" d="M16 20C18.2091 20 20 18.2091 20 16C20 13.7909 18.2091 12 16 12C13.7909 12 12 13.7909 12 16C12 18.2091 13.7909 20 16 20Z" stroke="black" stroke-width="2"/>
<path id="Vector_2" d="M18.3533 2.86932C17.864 2.66666 17.2427 2.66666 16 2.66666C14.7573 2.66666 14.136 2.66666 13.6467 2.86932C13.3229 3.00334 13.0287 3.19985 12.781 3.44762C12.5332 3.69539 12.3367 3.98956 12.2027 4.31332C12.08 4.61066 12.0307 4.95866 12.012 5.46399C12.0037 5.82931 11.9027 6.18652 11.7184 6.50208C11.5342 6.81764 11.2727 7.0812 10.9587 7.26799C10.6399 7.44671 10.2808 7.54146 9.91537 7.54332C9.54989 7.54519 9.18994 7.45412 8.86932 7.27866C8.42132 7.04132 8.09732 6.91066 7.77599 6.86799C7.07508 6.77582 6.36626 6.96573 5.80532 7.39599C5.38666 7.71999 5.07466 8.25732 4.45332 9.33332C3.83199 10.4093 3.51999 10.9467 3.45199 11.4733C3.40617 11.8206 3.42922 12.1735 3.51981 12.5119C3.61041 12.8502 3.76678 13.1674 3.97999 13.4453C4.17732 13.7013 4.45332 13.916 4.88132 14.1853C5.51199 14.5813 5.91732 15.256 5.91732 16C5.91732 16.744 5.51199 17.4187 4.88132 17.8133C4.45332 18.084 4.17599 18.2987 3.97999 18.5547C3.76678 18.8326 3.61041 19.1498 3.51981 19.4881C3.42922 19.8265 3.40617 20.1794 3.45199 20.5267C3.52132 21.052 3.83199 21.5907 4.45199 22.6667C5.07466 23.7427 5.38532 24.28 5.80532 24.604C6.08324 24.8172 6.40044 24.9736 6.7388 25.0642C7.07716 25.1548 7.43005 25.1778 7.77732 25.132C8.09732 25.0893 8.42132 24.9587 8.86932 24.7213C9.18994 24.5459 9.54989 24.4548 9.91537 24.4567C10.2808 24.4585 10.6399 24.5533 10.9587 24.732C11.6027 25.1053 11.9853 25.792 12.012 26.536C12.0307 27.0427 12.0787 27.3893 12.2027 27.6867C12.3367 28.0104 12.5332 28.3046 12.781 28.5524C13.0287 28.8001 13.3229 28.9966 13.6467 29.1307C14.136 29.3333 14.7573 29.3333 16 29.3333C17.2427 29.3333 17.864 29.3333 18.3533 29.1307C18.6771 28.9966 18.9713 28.8001 19.219 28.5524C19.4668 28.3046 19.6633 28.0104 19.7973 27.6867C19.92 27.3893 19.9693 27.0427 19.988 26.536C20.0147 25.792 20.3973 25.104 21.0413 24.732C21.3601 24.5533 21.7191 24.4585 22.0846 24.4567C22.4501 24.4548 22.81 24.5459 23.1307 24.7213C23.5787 24.9587 23.9027 25.0893 24.2227 25.132C24.5699 25.1778 24.9228 25.1548 25.2612 25.0642C25.5995 24.9736 25.9167 24.8172 26.1947 24.604C26.6147 24.2813 26.9253 23.7427 27.5467 22.6667C28.168 21.5907 28.48 21.0533 28.548 20.5267C28.5938 20.1794 28.5708 19.8265 28.4802 19.4881C28.3896 19.1498 28.2332 18.8326 28.02 18.5547C27.8227 18.2987 27.5467 18.084 27.1187 17.8147C26.8063 17.6248 26.5473 17.3587 26.3661 17.0412C26.1849 16.7238 26.0874 16.3655 26.0827 16C26.0827 15.256 26.488 14.5813 27.1187 14.1867C27.5467 13.916 27.824 13.7013 28.02 13.4453C28.2332 13.1674 28.3896 12.8502 28.4802 12.5119C28.5708 12.1735 28.5938 11.8206 28.548 11.4733C28.4787 10.948 28.168 10.4093 27.548 9.33332C26.9253 8.25732 26.6147 7.71999 26.1947 7.39599C25.9167 7.18278 25.5995 7.02641 25.2612 6.93581C24.9228 6.84522 24.5699 6.82217 24.2227 6.86799C23.9027 6.91066 23.5787 7.04132 23.1293 7.27866C22.8089 7.45388 22.4492 7.54482 22.0839 7.54295C21.7187 7.54109 21.36 7.44648 21.0413 7.26799C20.7273 7.0812 20.4658 6.81764 20.2816 6.50208C20.0973 6.18652 19.9963 5.82931 19.988 5.46399C19.9693 4.95732 19.9213 4.61066 19.7973 4.31332C19.6633 3.98956 19.4668 3.69539 19.219 3.44762C18.9713 3.19985 18.6771 3.00334 18.3533 2.86932Z" stroke="black" stroke-width="2"/>
</g>
</g>
</svg>
